<svg id="4a8308ea-de27-45b1-a4e0-af83ada03cec" data-name="Layer 1" xmlns="http://www.w3.org/2000/svg" width="9.63in" height="2.51in" viewBox="0 0 693.63 180.43"><title>selective-insurance-logo</title><path d="M18.81,118.95l4.07-7.2a2.24,2.24,0,0,1,2.95-.52c.35.17,6.59,4.77,12.31,4.77,3.47,0,6-2.17,6-5.2,0-3.64-3-6.42-8.93-8.76-7.46-2.95-16.82-8.75-16.82-19.16,0-8.58,6.67-17.25,20-17.25,9,0,15.95,4.59,18.55,6.5,1,.61.87,2.17.52,2.77L53,81.59c-.61,1-2.17,1.73-2.95,1.13-.78-.43-7.11-5.2-12.4-5.2-3.12,0-5.46,2.08-5.46,4.42,0,3.21,2.6,5.63,9.45,8.41s17.51,8,17.51,19.76C59.2,119,51.48,128,38.74,128c-11.27,0-17.51-4.68-19.5-6.67C18.37,120.51,18.11,120.16,18.81,118.95Z" transform="translate(-18.37 -18.65)" fill="#37312e"/><path d="M101.28,68.15a1.65,1.65,0,0,1,1.65-1.65h35.88a1.65,1.65,0,0,1,1.65,1.65V77.6a1.65,1.65,0,0,1-1.65,1.65h-24V90h19.76a1.71,1.71,0,0,1,1.65,1.65v9.45a1.65,1.65,0,0,1-1.65,1.65H114.81v11.7h24a1.65,1.65,0,0,1,1.65,1.65v9.45a1.65,1.65,0,0,1-1.65,1.65H102.93a1.65,1.65,0,0,1-1.65-1.65Z" transform="translate(-18.37 -18.65)" fill="#37312e"/><path d="M181.68,68.15a1.65,1.65,0,0,1,1.65-1.65h10.31a1.7,1.7,0,0,1,1.65,1.65v46.29h20.63a1.65,1.65,0,0,1,1.65,1.65v9.45a1.65,1.65,0,0,1-1.65,1.65H183.33a1.65,1.65,0,0,1-1.65-1.65Z" transform="translate(-18.37 -18.65)" fill="#37312e"/><path d="M258.54,68.15a1.65,1.65,0,0,1,1.65-1.65h35.88a1.65,1.65,0,0,1,1.65,1.65V77.6a1.65,1.65,0,0,1-1.65,1.65h-24V90h19.76a1.71,1.71,0,0,1,1.65,1.65v9.45a1.65,1.65,0,0,1-1.65,1.65H272.06v11.7h24a1.65,1.65,0,0,1,1.65,1.65v9.45a1.65,1.65,0,0,1-1.65,1.65H260.19a1.65,1.65,0,0,1-1.65-1.65Z" transform="translate(-18.37 -18.65)" fill="#37312e"/><path d="M371,65.64a29.12,29.12,0,0,1,21,8.06,1.61,1.61,0,0,1,.09,2.43l-6.76,7a1.52,1.52,0,0,1-2.17,0,17.71,17.71,0,0,0-11.7-4.42c-9.8,0-17,8.15-17,17.86s7.28,17.6,17.08,17.6A18.33,18.33,0,0,0,383.17,110a1.72,1.72,0,0,1,2.25.09l6.76,7.19a1.74,1.74,0,0,1-.09,2.34A29.75,29.75,0,0,1,371,128a31.21,31.21,0,1,1,0-62.41Z" transform="translate(-18.37 -18.65)" fill="#37312e"/><path d="M448.09,79.25h-12.4A1.65,1.65,0,0,1,434,77.6V68.15a1.65,1.65,0,0,1,1.65-1.65h38.48a1.65,1.65,0,0,1,1.65,1.65V77.6a1.65,1.65,0,0,1-1.65,1.65h-12.4v46.29a1.7,1.7,0,0,1-1.65,1.65h-10.4a1.7,1.7,0,0,1-1.65-1.65Z" transform="translate(-18.37 -18.65)" fill="#37312e"/><path d="M517.59,68.15a1.7,1.7,0,0,1,1.65-1.65h10.4a1.71,1.71,0,0,1,1.65,1.65v57.38a1.71,1.71,0,0,1-1.65,1.65h-10.4a1.7,1.7,0,0,1-1.65-1.65Z" transform="translate(-18.37 -18.65)" fill="#37312e"/><path d="M572.91,68.76a1.53,1.53,0,0,1,1.47-2.25h11.53a1.7,1.7,0,0,1,1.47,1l14.3,31.64h.52l14.3-31.64a1.7,1.7,0,0,1,1.47-1h11.53A1.53,1.53,0,0,1,631,68.76l-27.22,58.34a1.65,1.65,0,0,1-1.47,1h-.87a1.65,1.65,0,0,1-1.47-1Z" transform="translate(-18.37 -18.65)" fill="#37312e"/><path d="M672.82,68.15a1.65,1.65,0,0,1,1.65-1.65h35.89A1.65,1.65,0,0,1,712,68.15V77.6a1.64,1.64,0,0,1-1.65,1.65h-24V90h19.76a1.71,1.71,0,0,1,1.65,1.65v9.45a1.65,1.65,0,0,1-1.65,1.65H686.34v11.7h24a1.65,1.65,0,0,1,1.65,1.65v9.45a1.65,1.65,0,0,1-1.65,1.65H674.47a1.65,1.65,0,0,1-1.65-1.65Z" transform="translate(-18.37 -18.65)" fill="#37312e"/><circle cx="583.22" cy="13.46" r="13.46" fill="#ffd11b"/><circle cx="543.4" cy="23.55" r="10.08" fill="#ffd11b"/><circle cx="623.06" cy="23.55" r="10.08" fill="#ffd11b"/><path d="M140.85,162.45a.79.79,0,0,1,.79-.79H151c5,0,8.67,3.33,8.67,7.71,0,3.21-2.37,5.5-4.33,6.63,2.21.92,5.21,3,5.21,6.79,0,4.67-3.83,8-9.08,8h-9.79a.79.79,0,0,1-.79-.79ZM151.39,187a4.44,4.44,0,0,0,4.5-4.54c0-2.54-2.42-4.38-5.13-4.38h-5.71V187Zm-.67-12.67a4.18,4.18,0,0,0,4.29-4.46,4,4,0,0,0-4.29-4.29H145.1v8.75Z" transform="translate(-18.37 -18.65)" fill="#37312e"/><path d="M167.25,162.45a.79.79,0,0,1,.79-.79h16.67a.79.79,0,0,1,.79.79v2.33a.79.79,0,0,1-.79.79H171.54v8.5h11.13a.82.82,0,0,1,.79.79v2.33a.79.79,0,0,1-.79.79H171.54v9h13.17a.79.79,0,0,1,.79.79V190a.79.79,0,0,1-.79.79H168a.79.79,0,0,1-.79-.79Z" transform="translate(-18.37 -18.65)" fill="#37312e"/><path d="M202.67,162.45a.82.82,0,0,1,.79-.79h2.79a.79.79,0,0,1,.79.79v17.21c0,4.17,2.67,7.42,6.92,7.42s7-3.21,7-7.33V162.45a.79.79,0,0,1,.79-.79h2.79a.82.82,0,0,1,.79.79V180a11.33,11.33,0,0,1-22.67,0Z" transform="translate(-18.37 -18.65)" fill="#37312e"/><path d="M233.37,162a.78.78,0,0,1,.79-.75h1l18.09,20.92h0V162.45a.79.79,0,0,1,.79-.79h2.67a.82.82,0,0,1,.79.79v28a.78.78,0,0,1-.79.75H255.7l-18.09-21.5h0V190a.79.79,0,0,1-.79.79h-2.63a.82.82,0,0,1-.79-.79Z" transform="translate(-18.37 -18.65)" fill="#37312e"/><path d="M265.89,162.45a.82.82,0,0,1,.79-.79h2.75a.82.82,0,0,1,.79.79V190a.82.82,0,0,1-.79.79h-2.75a.82.82,0,0,1-.79-.79Z" transform="translate(-18.37 -18.65)" fill="#37312e"/><path d="M291.46,161.24a15,15,0,0,1,15,15,15.14,15.14,0,0,1-8.5,13.54l5,8a.78.78,0,0,1-.67,1.25h-3.25a.86.86,0,0,1-.67-.42l-4.5-7.58a16.63,16.63,0,0,1-2.46.17,15,15,0,0,1,0-30Zm0,25.84a10.84,10.84,0,1,0-10.79-10.79A10.83,10.83,0,0,0,291.46,187.08Z" transform="translate(-18.37 -18.65)" fill="#37312e"/><path d="M312.47,162.45a.82.82,0,0,1,.79-.79h2.79a.79.79,0,0,1,.79.79v17.21c0,4.17,2.67,7.42,6.92,7.42s7-3.21,7-7.33V162.45a.79.79,0,0,1,.79-.79h2.79a.82.82,0,0,1,.79.79V180a11.33,11.33,0,0,1-22.67,0Z" transform="translate(-18.37 -18.65)" fill="#37312e"/><path d="M343.17,162.45a.79.79,0,0,1,.79-.79h16.67a.79.79,0,0,1,.79.79v2.33a.79.79,0,0,1-.79.79H347.46v8.5h11.13a.82.82,0,0,1,.79.79v2.33a.79.79,0,0,1-.79.79H347.46v9h13.17a.79.79,0,0,1,.79.79V190a.79.79,0,0,1-.79.79H344a.79.79,0,0,1-.79-.79Z" transform="translate(-18.37 -18.65)" fill="#37312e"/><path d="M367.71,162.45a.79.79,0,0,1,.79-.79h2.75a.82.82,0,0,1,.79.79V187h11.29a.79.79,0,0,1,.79.79V190a.79.79,0,0,1-.79.79H368.5a.79.79,0,0,1-.79-.79Z" transform="translate(-18.37 -18.65)" fill="#37312e"/><path d="M391.51,176.79l-9.75-13.92a.77.77,0,0,1,.67-1.21h3.08a.83.83,0,0,1,.67.38l7.54,10.63L401.26,162a.9.9,0,0,1,.67-.37h3.13a.77.77,0,0,1,.67,1.21l-9.88,13.88V190a.82.82,0,0,1-.79.79H392.3a.79.79,0,0,1-.79-.79Z" transform="translate(-18.37 -18.65)" fill="#37312e"/><path d="M421,162.45a.82.82,0,0,1,.79-.79h2.75a.82.82,0,0,1,.79.79V190a.82.82,0,0,1-.79.79h-2.75A.82.82,0,0,1,421,190Z" transform="translate(-18.37 -18.65)" fill="#37312e"/><path d="M433.55,162a.78.78,0,0,1,.79-.75h1l18.08,20.92h0V162.45a.79.79,0,0,1,.79-.79H457a.82.82,0,0,1,.79.79v28a.78.78,0,0,1-.79.75h-1.08l-18.08-21.5h0V190a.79.79,0,0,1-.79.79h-2.62a.82.82,0,0,1-.79-.79Z" transform="translate(-18.37 -18.65)" fill="#37312e"/><path d="M464.44,186.62c.38-.54.71-1.17,1.08-1.71a.94.94,0,0,1,1.42-.33c.25.21,3.46,2.88,6.67,2.88,2.88,0,4.71-1.75,4.71-3.88,0-2.5-2.17-4.08-6.29-5.79s-7.58-4-7.58-8.83c0-3.25,2.5-7.71,9.13-7.71a14.11,14.11,0,0,1,7.71,2.46,1,1,0,0,1,.25,1.42l-1,1.58a1,1,0,0,1-1.46.42c-.29-.17-3.21-2.08-5.63-2.08-3.5,0-4.71,2.21-4.71,3.75,0,2.38,1.83,3.83,5.29,5.25,4.83,2,9,4.25,9,9.33,0,4.33-3.87,7.88-9.29,7.88a13.49,13.49,0,0,1-9-3.29A.88.88,0,0,1,464.44,186.62Z" transform="translate(-18.37 -18.65)" fill="#37312e"/><path d="M488.47,162.45a.82.82,0,0,1,.79-.79H492a.79.79,0,0,1,.79.79v17.21c0,4.17,2.67,7.42,6.92,7.42s7-3.21,7-7.33V162.45a.79.79,0,0,1,.79-.79h2.79a.82.82,0,0,1,.79.79V180a11.34,11.34,0,0,1-22.67,0Z" transform="translate(-18.37 -18.65)" fill="#37312e"/><path d="M519.16,162.45a.79.79,0,0,1,.79-.79h11.33a9,9,0,0,1,9.08,8.92,9.25,9.25,0,0,1-6.17,8.46l5.71,10.58a.79.79,0,0,1-.71,1.21H536a.77.77,0,0,1-.67-.37l-5.54-11h-6.29V190a.82.82,0,0,1-.79.79H520a.79.79,0,0,1-.79-.79ZM531,175.83a5.18,5.18,0,0,0,5.08-5.17,5.11,5.11,0,0,0-5.08-5h-7.42v10.13Z" transform="translate(-18.37 -18.65)" fill="#37312e"/><path d="M547.14,162.45a.79.79,0,0,1,.79-.79h16.67a.79.79,0,0,1,.79.79v2.33a.79.79,0,0,1-.79.79H551.44v8.5h11.13a.82.82,0,0,1,.79.79v2.33a.79.79,0,0,1-.79.79H551.44v9h13.17a.79.79,0,0,1,.79.79V190a.79.79,0,0,1-.79.79H547.94a.79.79,0,0,1-.79-.79Z" transform="translate(-18.37 -18.65)" fill="#37312e"/><path d="M571.68,162.45a.78.78,0,0,1,.75-.79H582a14.59,14.59,0,1,1,0,29.17h-9.58a.78.78,0,0,1-.75-.79Zm9.75,24.42a10.63,10.63,0,0,0,0-21.25h-5.5v21.25Z" transform="translate(-18.37 -18.65)" fill="#37312e"/><path d="M605.49,171.89a5.11,5.11,0,0,0,3.91,1.82c2.58,0,3.31-1.43,3.31-2.5,0-1.77-1.67-2.26-3.44-2.73-2-.55-4.08-1.11-4.08-3.42,0-2.05,1.84-3.35,4.12-3.35a5.39,5.39,0,0,1,4.25,1.77l-.71.79a4.5,4.5,0,0,0-3.59-1.58c-1.67,0-2.93,1-2.93,2.31s1.56,1.92,3.27,2.37c2,.58,4.25,1.22,4.25,3.76,0,1.62-1.07,3.56-4.46,3.56a5.77,5.77,0,0,1-4.59-2Z" transform="translate(-18.37 -18.65)" fill="#37312e"/><path d="M627.06,163.33l-4.57,11.14h-.41l-4.59-11.14v11.14h-1.07V161.92H618l4.27,10.4,4.25-10.4h1.62v12.55h-1.09Z" transform="translate(-18.37 -18.65)" fill="#37312e"/></svg>